<?xml version="1.0" standalone="no"?>
<!DOCTYPE svg PUBLIC "-//W3C//DTD SVG 20010904//EN"
 "http://www.w3.org/TR/2001/REC-SVG-20010904/DTD/svg10.dtd">
<svg version="1.0" xmlns="http://www.w3.org/2000/svg"
 width="1024.000000pt" height="1024.000000pt" viewBox="0 0 1024.000000 1024.000000"
 preserveAspectRatio="xMidYMid meet">

<g transform="translate(0.000000,1024.000000) scale(0.100000,-0.100000)"
fill="#000000" stroke="none">
<path d="M4585 8200 l-1820 -5 -70 -26 c-147 -55 -241 -115 -336 -216 -145
-154 -216 -314 -228 -516 -5 -67 -7 -1130 -6 -2362 l1 -2240 22 -81 c11 -45
33 -107 47 -139 75 -170 242 -353 388 -425 154 -75 127 -73 852 -81 881 -10
3043 -9 3560 1 477 9 493 11 638 88 161 84 318 264 386 442 66 169 62 -5 59
2570 l-3 2335 -31 87 c-17 48 -51 120 -74 159 -54 90 -173 216 -260 274 -78
52 -217 110 -298 124 -80 14 -717 17 -2827 11z m325 -170 l0 -40 -175 0 -175
0 0 34 c0 43 -1 43 198 45 l152 1 0 -40z m361 -16 c37 -19 76 -68 88 -110 14
-51 3 -98 -35 -142 -99 -116 -294 -49 -294 101 0 129 128 209 241 151z m550
-41 c136 -70 161 -246 49 -347 -34 -30 -91 -56 -127 -56 -51 0 -116 25 -157
62 -75 66 -93 164 -46 258 21 42 42 61 95 88 57 30 120 28 186 -5z m-1848 -94
c13 -6 31 -23 40 -39 58 -97 -50 -208 -136 -140 -61 48 -52 146 15 175 40 17
51 18 81 4z m271 -21 c9 -12 16 -26 16 -30 0 -13 -39 -48 -54 -48 -40 0 -62
70 -28 89 27 16 50 13 66 -11z m1986 2 c41 -29 55 -78 36 -123 -41 -99 -186
-65 -186 43 0 82 84 127 150 80z m-1310 -25 l0 -35 -260 0 -260 0 0 35 0 35
260 0 260 0 0 -35z m-1230 -160 l0 -74 -367 -3 -368 -3 -44 -25 c-63 -35 -91
-92 -91 -182 l0 -68 -86 0 -87 0 6 78 c7 102 32 164 91 229 103 113 142 121
594 122 l352 1 0 -75z m3642 47 c75 -30 147 -96 183 -168 24 -47 30 -73 33
-146 l4 -88 -81 0 -81 0 0 51 c0 71 -18 125 -54 160 -66 66 -53 64 -478 67
l-388 3 0 75 0 75 403 -3 c393 -3 403 -4 459 -26z m-2412 -87 l0 -35 -180 0
-180 0 0 35 0 35 180 0 180 0 0 -35z m1529 -201 c24 -20 31 -34 31 -60 0 -30
-5 -37 -35 -50 -44 -18 -79 -18 -115 1 -25 13 -30 22 -30 51 0 77 87 111 149
58z m-2599 2 c0 -8 -5 -37 -12 -65 l-11 -51 -209 0 -208 0 0 65 0 65 220 0
c184 0 220 -2 220 -14z m420 -51 l0 -65 -150 0 -150 0 0 28 c0 15 3 44 6 65
l7 37 143 0 144 0 0 -65z m1878 -3 l3 -62 -351 0 -350 0 0 60 0 60 338 2 c185
2 342 3 347 2 6 0 11 -28 13 -62z m-848 -2 l0 -60 -405 0 -405 0 0 60 0 60
405 0 405 0 0 -60z m-2200 20 c11 -11 20 -31 20 -45 0 -14 -9 -34 -20 -45 -64
-64 -165 24 -105 90 24 26 79 26 105 0z m4100 0 c28 -28 25 -57 -9 -91 -26
-26 -32 -28 -60 -18 -50 18 -65 64 -35 107 20 29 76 30 104 2z m-314 -59 c136
-62 174 -251 71 -355 -85 -84 -205 -87 -298 -7 -79 67 -99 162 -55 257 23 51
68 94 116 113 40 16 122 12 166 -8z m-4066 -556 l0 -405 -79 0 c-54 0 -80 4
-83 13 -2 6 -5 189 -7 405 l-3 392 86 0 86 0 0 -405z m4730 -315 l0 -720 -85
0 -85 0 0 720 0 720 85 0 85 0 0 -720z m-2157 682 c20 -18 22 -69 3 -94 -31
-41 -113 -37 -130 7 -32 84 58 146 127 87z m-955 -79 l-3 -98 -425 -3 c-406
-2 -427 -3 -468 -23 -23 -12 -55 -37 -70 -57 -27 -35 -27 -37 -27 -193 0 -153
1 -158 24 -183 31 -33 33 -33 384 -101 159 -31 314 -65 345 -77 77 -29 146
-95 173 -167 45 -120 9 -278 -80 -352 -68 -56 -93 -59 -456 -59 -373 0 -401 4
-474 67 -43 36 -101 108 -101 125 0 4 184 8 410 8 453 0 475 3 506 61 13 26
13 32 -5 67 -13 26 -32 44 -58 55 -21 9 -174 44 -341 77 -402 79 -446 100
-508 235 -25 54 -28 73 -32 201 -5 162 8 260 43 319 52 89 156 166 249 185 22
4 238 8 479 9 l438 1 -3 -97z m337 77 c26 -29 24 -79 -4 -102 -68 -54 -155 28
-105 100 20 29 83 31 109 2z m1575 -35 l0 -55 -400 0 -400 0 0 49 c0 30 5 51
13 54 6 3 186 6 400 6 l387 1 0 -55z m-1213 9 c12 -19 11 -24 -5 -44 -16 -19
-22 -21 -40 -11 -24 13 -29 50 -10 69 17 17 38 11 55 -14z m-178 -2 c13 -24
-4 -52 -33 -52 -33 0 -50 23 -36 49 13 26 56 28 69 3z m-1866 -54 c9 -11 17
-28 17 -38 0 -25 -31 -58 -60 -65 -32 -8 -80 33 -80 68 0 59 81 83 123 35z
m4137 -205 c0 -14 -22 -25 -98 -47 -142 -43 -135 -41 -130 -20 2 14 29 27 103
51 118 37 125 38 125 16z m-1333 -22 c111 -11 173 -41 238 -113 82 -91 113
-194 95 -318 -16 -115 -56 -182 -134 -223 -38 -20 -58 -22 -279 -27 -236 -5
-239 -5 -258 -29 -30 -37 -25 -85 15 -129 34 -36 36 -37 120 -41 l86 -3 0
-100 0 -100 -107 4 c-127 4 -180 25 -251 96 -66 66 -97 140 -96 232 0 90 23
149 80 204 69 67 81 70 359 76 l250 5 0 92 c0 104 -13 131 -75 165 -33 17 -60
18 -455 16 l-420 -3 -47 -27 c-34 -21 -53 -41 -72 -80 l-26 -52 0 -436 c0
-497 -2 -510 -73 -587 -23 -25 -64 -57 -92 -71 l-50 -27 -277 -3 c-218 -3
-278 -1 -278 9 0 7 30 52 67 101 l67 88 182 0 c179 0 184 1 211 24 l28 24 5
474 c5 465 5 474 28 530 47 117 169 211 295 227 86 12 751 12 864 2z m673 -33
c73 -36 134 -89 167 -145 49 -84 53 -125 53 -560 l0 -403 -95 0 -95 0 0 400
c0 314 -3 408 -14 433 -30 73 -122 127 -215 127 -33 0 -41 7 -97 78 -33 42
-64 83 -68 90 -7 11 20 13 150 10 149 -3 163 -5 214 -30z m-3492 -35 c12 -10
24 -30 28 -45 5 -24 3 -28 -14 -28 -12 0 -24 -4 -27 -10 -3 -6 1 -7 9 -4 23 9
20 -9 -3 -23 -41 -25 -101 12 -101 62 0 26 42 65 70 65 10 0 27 -8 38 -17z
m1396 -65 c36 -40 66 -79 66 -85 0 -10 -97 -13 -450 -13 l-450 0 0 85 0 85
384 0 384 0 66 -72z m2676 -7 c53 -15 66 -22 68 -41 4 -22 -11 -40 -35 -40 -6
0 -9 8 -6 19 4 15 -3 19 -49 25 -29 4 -63 10 -75 13 -22 5 -23 2 -23 -47 0
-44 -3 -51 -17 -48 -14 2 -19 15 -21 50 -6 92 27 106 158 69z m68 -208 c-3
-15 -17 -18 -96 -21 l-92 -3 2 -44 c1 -50 -4 -60 -27 -52 -11 5 -15 21 -15 65
0 32 3 62 7 65 3 4 55 7 115 7 99 0 109 -2 106 -17z m-4125 -31 c42 -37 2
-116 -55 -110 -44 4 -75 48 -62 85 17 49 75 61 117 25z m4101 -103 c29 -14 40
-37 27 -57 -8 -13 -173 -62 -207 -62 -14 0 -24 6 -24 14 0 8 33 21 95 36 86
21 128 39 93 41 -7 0 -35 11 -63 25 l-50 24 50 -3 c28 -2 63 -10 79 -18z
m-4409 -140 c89 -24 153 -107 141 -183 -14 -83 -87 -146 -171 -146 -56 0 -118
40 -144 93 -45 94 -12 184 84 228 48 22 41 21 90 8z m4425 -84 c13 -8 13 -95
0 -115 -15 -23 -181 -28 -203 -5 -20 20 -23 93 -4 118 19 26 165 28 207 2z
m-855 -1012 c-4 -892 -3 -873 -52 -950 -48 -75 -139 -127 -255 -144 -83 -12
-483 1 -508 16 -8 5 -21 10 -27 11 -45 7 -117 75 -156 148 -21 39 -22 57 -27
321 l-5 280 -250 0 -250 0 -3 -297 -2 -298 -91 0 -91 0 4 283 c4 302 9 334 59
395 33 40 97 87 138 101 24 8 224 11 683 11 l648 0 -2 392 -3 392 -127 -3
-128 -3 0 91 0 91 224 0 224 0 -3 -837z m865 737 c0 -47 -3 -60 -15 -60 -9 0
-15 9 -15 25 0 24 -3 25 -62 25 -87 0 -138 10 -138 26 0 11 21 14 95 14 78 0
95 3 95 15 0 8 9 15 20 15 18 0 20 -7 20 -60z m-4411 -136 c27 -35 26 -59 -4
-89 -48 -49 -128 -20 -128 45 0 67 91 97 132 44z m4399 3 c9 -7 12 -29 10 -66
l-3 -56 -110 0 -110 0 -3 44 c-6 84 -1 90 81 93 81 4 116 0 135 -15z m-1894
-9 c33 -46 7 -98 -47 -98 -58 0 -88 60 -50 102 23 26 78 24 97 -4z m-1184
-166 c0 -5 -28 -46 -63 -93 -42 -57 -70 -85 -86 -87 -17 -3 -21 0 -15 10 6 10
3 9 -10 -1 -14 -12 -19 -12 -25 -2 -6 10 -10 9 -14 -3 -6 -14 -44 -16 -324
-16 -292 0 -321 -2 -360 -20 -63 -28 -85 -70 -80 -148 6 -73 24 -99 96 -134
45 -23 54 -23 461 -26 228 -2 439 0 468 3 l52 6 0 75 0 74 105 0 105 0 0 -638
c0 -708 1 -697 -66 -798 -61 -91 -147 -134 -270 -134 l-74 0 0 95 0 95 28 0
c44 1 107 35 138 76 l29 37 3 464 3 463 -471 0 c-518 0 -566 4 -652 59 -100
63 -158 178 -158 310 0 159 77 276 213 322 47 17 97 18 510 19 251 0 457 -4
457 -8z m1830 -73 l0 -39 -70 0 -70 0 0 38 c0 21 2 41 4 43 2 2 34 2 70 1 l66
-4 0 -39z m821 25 c90 -46 116 -168 53 -251 -52 -68 -157 -85 -232 -36 -56 36
-75 80 -70 154 3 47 10 66 35 96 48 60 139 76 214 37z m-1186 -13 c98 -57 97
-212 -1 -268 -99 -57 -215 -2 -230 109 -16 124 125 221 231 159z m-428 -41
c50 -30 66 -63 60 -117 -4 -36 -12 -53 -34 -70 -79 -63 -198 -26 -210 66 -15
108 92 178 184 121z m2133 -15 l0 -25 -120 0 -120 0 0 25 0 25 120 0 120 0 0
-25z m-1340 -170 l0 -45 -70 0 -70 0 0 45 0 45 70 0 70 0 0 -45z m1288 39 c42
-6 52 -10 52 -25 0 -15 -8 -19 -32 -19 -18 0 -43 -3 -55 -6 -17 -5 -23 -2 -23
10 0 12 -10 16 -40 16 -36 0 -40 -2 -40 -25 0 -18 -5 -25 -20 -25 -17 0 -20 7
-20 40 l0 40 63 0 c34 0 86 -3 115 -6z m47 -160 c10 -4 15 -20 15 -45 0 -43 2
-42 -60 -28 -86 20 -160 -31 -160 -110 0 -70 92 -115 150 -73 l29 22 21 -27
c38 -49 19 -65 -96 -78 -67 -7 -108 9 -151 58 -107 122 16 310 190 291 26 -2
54 -7 62 -10z m-4487 -336 c-1 -205 -4 -294 -8 -233 l-6 100 -4 -85 -4 -85 -3
68 c-2 37 -8 67 -13 67 -6 0 -10 -30 -10 -67 0 -83 -19 -68 -22 17 -1 55 -1
55 -6 10 -3 -35 -6 -41 -12 -25 -6 13 -9 -7 -11 -60 -3 -79 -3 -79 -6 -17 -2
34 -8 62 -13 62 -5 0 -11 17 -13 38 -2 20 -2 3 0 -38 2 -41 -1 -106 -6 -145
-6 -49 -9 47 -10 328 l-1 397 75 0 75 0 -2 -332z m4740 120 l-3 -213 -61 -3
-61 -3 -6 68 c-4 37 -7 134 -7 216 l0 147 70 0 70 0 -2 -212z m-753 -20 c3
-51 5 -274 3 -496 l-3 -403 -97 -4 -98 -5 0 500 0 500 94 0 94 0 7 -92z
m-3677 -212 c70 -36 75 -147 9 -191 -32 -20 -97 -32 -97 -17 0 6 -6 9 -12 7
-7 -2 -22 4 -34 13 -62 52 -58 152 7 188 32 18 93 17 127 0z m4170 -28 c30
-30 0 -78 -37 -58 -25 13 -26 27 -4 52 19 21 25 22 41 6z m-3273 -133 l0 -100
-258 -5 -259 -5 -24 -28 c-45 -53 -41 -108 13 -159 24 -23 29 -23 276 -28
l252 -5 0 -98 0 -99 -269 2 c-308 1 -332 6 -405 85 -123 133 -135 329 -29 449
77 89 104 95 438 93 l265 -2 0 -100z m3100 89 c24 -24 16 -68 -13 -72 -13 -2
-30 2 -38 8 -19 17 -18 57 4 69 23 14 28 14 47 -5z m424 -122 c134 -99 63
-300 -104 -296 -54 1 -96 27 -129 77 -94 145 94 322 233 219z m-349 -277 l0
-45 -100 0 -100 0 0 45 0 45 100 0 100 0 0 -45z m-2054 16 c30 -19 64 -74 64
-106 0 -23 -19 -57 -29 -50 -5 2 -8 -3 -7 -12 0 -9 -5 -18 -13 -21 -8 -2 -11
0 -7 6 3 5 -1 12 -9 16 -8 3 -14 0 -12 -7 2 -13 -52 -11 -67 3 -5 5 -19 2 -33
-7 -20 -13 -26 -14 -36 -3 -10 10 -9 12 5 7 25 -9 42 17 23 33 -13 11 -14 10
-9 -4 3 -9 1 -16 -5 -16 -6 0 -11 6 -12 13 0 10 -2 10 -6 0 -9 -23 -22 -14
-28 20 -19 101 94 181 181 128z m-2017 -26 c16 -8 36 -31 46 -51 14 -31 15
-43 6 -75 -20 -66 -107 -102 -146 -59 -21 23 -44 28 -25 5 8 -10 9 -15 2 -15
-23 0 -62 66 -62 104 0 56 52 106 109 106 23 0 55 -7 70 -15z m4391 -167 c28
-31 25 -93 -5 -81 -8 2 -25 -7 -38 -21 -25 -27 -61 -27 -50 0 3 8 0 14 -6 14
-6 0 -11 -6 -11 -12 0 -9 -4 -8 -10 2 -17 26 -11 79 10 100 27 27 83 27 110
-2z m-320 -43 l0 -35 -100 0 -100 0 0 35 0 35 100 0 100 0 0 -35z m360 -265
l0 -120 -85 0 -85 0 0 120 0 120 85 0 85 0 0 -120z m-1614 60 l1254 0 0 -90 0
-90 -1269 0 -1270 0 -3 28 c-2 15 -1 58 0 95 3 56 6 67 19 63 8 -3 579 -6
1269 -6z m-3059 -6 c-3 -3 -12 -4 -19 -1 -8 3 -5 6 6 6 11 1 17 -2 13 -5z
m986 -16 c3 -10 1 -21 -4 -24 -5 -3 -7 -10 -4 -15 4 -5 1 -9 -5 -9 -6 0 -10 8
-9 18 4 42 4 42 -128 36 -71 -2 -252 -1 -403 4 l-275 8 412 0 c388 0 412 -1
416 -18z m37 -63 c0 -74 -2 -85 -17 -85 -15 0 -16 2 -3 10 10 7 11 10 3 11 -7
1 -17 3 -23 4 -5 1 -18 3 -27 5 -11 1 -13 3 -5 7 6 2 12 13 12 24 0 10 5 19
10 19 6 0 9 -3 9 -7 -3 -21 2 -33 16 -33 12 0 15 13 15 55 0 30 -4 55 -10 55
-5 0 -10 5 -10 10 0 6 7 10 15 10 12 0 15 -16 15 -85z m-94 46 c-3 -5 -15 -7
-26 -4 -28 7 -25 13 6 13 14 0 23 -4 20 -9z m-46 -21 c0 -5 -4 -10 -9 -10 -6
0 -13 5 -16 10 -3 6 1 10 9 10 9 0 16 -4 16 -10z m-257 -87 c-13 -2 -33 -2
-45 0 -13 2 -3 4 22 4 25 0 35 -2 23 -4z m352 -13 c4 -6 -20 -9 -67 -8 l-73 1
65 7 c36 4 66 7 67 8 1 1 5 -2 8 -8z m-462 -7 c-29 -2 -78 -2 -110 0 -32 2 -8
3 52 3 61 0 87 -1 58 -3z m-329 -337 c42 -18 75 -71 83 -135 l6 -51 -42 0 -41
0 0 40 c0 54 -34 90 -85 90 -55 0 -85 -35 -85 -100 0 -70 15 -94 118 -188 109
-100 137 -153 129 -244 -10 -109 -63 -160 -166 -160 -34 0 -71 7 -89 16 -40
21 -70 78 -78 150 l-7 56 42 0 41 0 0 -40 c0 -46 21 -95 45 -104 9 -3 29 -6
45 -6 42 0 59 9 75 41 39 73 3 159 -102 242 -100 79 -133 137 -133 229 0 115
56 178 157 178 29 0 69 -6 87 -14z m424 -10 c50 -26 72 -82 72 -184 0 -98 -17
-145 -63 -168 l-29 -16 31 -19 c48 -29 61 -72 61 -193 0 -58 4 -116 10 -130 9
-25 9 -26 -34 -26 -41 0 -44 2 -50 31 -3 17 -6 78 -6 134 0 83 -3 107 -17 124
-18 22 -74 40 -125 41 l-28 0 0 -165 0 -165 -40 0 -40 0 0 381 0 382 113 -5
c80 -3 121 -9 145 -22z m472 -16 l0 -40 -115 0 -115 0 0 -130 0 -130 95 0 95
0 0 -35 0 -35 -95 0 -96 0 3 -137 3 -138 113 -3 112 -3 0 -34 0 -35 -155 0
-155 0 0 380 0 380 155 0 155 0 0 -40z m194 32 c2 -4 30 -131 61 -282 31 -151
59 -284 62 -295 4 -12 31 103 67 280 l61 300 58 3 57 3 0 -381 0 -380 -40 0
-40 0 -1 298 -1 297 -60 -297 -61 -298 -38 0 c-22 0 -39 2 -39 4 0 13 -122
581 -125 585 -3 2 -5 -129 -5 -292 l0 -297 -35 0 -35 0 0 380 0 380 54 0 c30
0 57 -3 60 -8z m700 -9 c3 -10 35 -175 71 -368 36 -192 68 -356 70 -363 4 -10
-6 -12 -37 -10 l-43 3 -14 73 -13 72 -99 0 -98 0 -10 -52 c-5 -29 -11 -62 -13
-73 -2 -15 -12 -21 -42 -23 -36 -3 -38 -2 -33 20 3 13 36 184 73 381 l68 357
57 0 c46 0 59 -3 63 -17z m462 1 c47 -22 76 -81 82 -166 l5 -68 -42 0 -41 0 0
55 c0 60 -19 109 -45 119 -34 13 -75 5 -102 -18 l-28 -24 -3 -234 c-3 -255 0
-290 29 -319 25 -25 89 -25 120 0 22 18 24 28 27 130 l4 111 -41 0 c-40 0 -41
1 -41 35 l0 35 81 0 81 0 -4 -142 c-2 -122 -6 -149 -24 -183 -29 -55 -70 -77
-144 -77 -74 0 -115 22 -144 77 -20 38 -21 55 -21 305 0 248 1 268 21 304 11
22 35 47 54 58 44 23 130 24 176 2z m414 -2 c50 -25 72 -71 78 -158 l5 -74
-42 0 -41 0 0 65 c0 57 -3 69 -25 90 -51 52 -136 20 -150 -57 -4 -18 -5 -136
-3 -260 3 -224 3 -227 27 -252 33 -35 92 -36 126 -1 23 23 25 31 25 130 l0
105 -35 0 c-33 0 -35 2 -35 35 l0 35 75 0 75 0 0 -138 c0 -123 -2 -142 -22
-182 -30 -59 -74 -83 -148 -83 -72 1 -110 22 -142 77 -23 40 -23 46 -23 306 0
249 1 267 21 300 32 55 77 80 143 80 33 0 70 -7 91 -18z m248 -364 l2 -378
-40 0 -40 0 0 381 0 380 38 -3 37 -3 3 -377z m482 371 c55 -12 84 -39 105 -94
14 -35 16 -82 13 -297 -3 -241 -4 -258 -24 -284 -45 -61 -66 -69 -195 -73
l-119 -3 0 381 0 381 88 0 c48 0 107 -5 132 -11z m510 -29 l0 -40 -115 0 -115
0 0 -130 0 -130 95 0 95 0 0 -35 0 -35 -95 0 -96 0 3 -137 3 -138 113 -3 112
-3 0 -34 0 -35 -155 0 -155 0 0 380 0 380 155 0 155 0 0 -40z m142 28 c3 -7
31 -154 63 -326 32 -172 62 -309 65 -305 4 5 30 139 59 298 29 160 55 302 58
318 5 23 10 27 39 27 20 0 34 -5 34 -12 1 -7 -30 -178 -67 -380 l-68 -368 -61
0 -60 0 -68 363 c-37 199 -69 370 -72 380 -5 14 1 17 34 17 23 0 42 -5 44 -12z
m-972 -698 l0 -50 -35 0 -35 0 0 50 0 50 35 0 35 0 0 -50z"/>
<path d="M5142 7920 c-47 -44 -13 -120 53 -120 38 0 75 35 75 71 0 58 -84 90
-128 49z"/>
<path d="M5671 7854 c-42 -35 -43 -84 -2 -125 46 -46 106 -37 136 21 22 43 18
69 -16 101 -39 36 -77 37 -118 3z"/>
<path d="M6745 7205 c-36 -35 -35 -96 1 -124 15 -12 40 -21 56 -21 38 0 88 48
88 85 0 16 -12 38 -29 56 -38 37 -82 39 -116 4z"/>
<path d="M3070 7000 c-8 -5 -12 -12 -9 -15 4 -3 12 1 19 10 14 17 11 19 -10 5z"/>
<path d="M2698 6110 c-25 -26 -29 -36 -24 -63 13 -65 76 -93 133 -58 70 44 30
151 -57 151 -12 0 -35 -14 -52 -30z"/>
<path d="M7030 6075 l0 -35 75 0 75 0 0 35 0 35 -75 0 -75 0 0 -35z"/>
<path d="M5517 4803 c-11 -10 -8 -469 3 -498 5 -14 23 -40 40 -58 l30 -32 230
-3 c259 -3 281 1 326 67 24 35 24 37 24 283 l0 248 -323 0 c-178 0 -327 -3
-330 -7z m363 -218 c35 -18 62 -65 56 -97 -3 -13 -5 -27 -5 -31 -1 -5 -7 -5
-13 0 -7 4 -17 8 -23 8 -5 1 -9 7 -7 14 1 7 -2 9 -9 5 -7 -4 -10 -1 -7 7 6 18
-20 38 -50 39 -21 0 -38 -24 -33 -45 3 -12 -25 -31 -47 -31 -43 0 -40 81 6
123 30 27 88 31 132 8z"/>
<path d="M7034 5696 c-3 -8 -4 -25 -2 -38 3 -21 8 -23 76 -26 l72 -3 0 34 c0
41 -11 47 -86 47 -38 0 -56 -4 -60 -14z"/>
<path d="M3952 5418 c-7 -7 -12 -16 -12 -21 0 -5 7 -1 16 8 9 9 14 18 12 20
-2 3 -10 -1 -16 -7z"/>
<path d="M5083 5389 c-27 -10 -38 -42 -23 -69 8 -14 21 -20 45 -20 38 0 61 27
50 59 -7 24 -45 40 -72 30z"/>
<path d="M2713 4680 c0 -25 2 -35 4 -22 2 12 2 32 0 45 -2 12 -4 2 -4 -23z"/>
<path d="M3025 4626 c-24 -36 -5 -68 38 -64 27 3 33 8 35 33 3 19 -2 33 -14
42 -26 19 -42 16 -59 -11z"/>
<path d="M7395 4425 c-55 -54 -24 -135 52 -135 77 0 110 85 52 134 -38 33 -73
33 -104 1z"/>
<path d="M5042 4168 c-17 -17 -15 -65 4 -72 43 -17 84 4 84 43 0 33 -63 54
-88 29z"/>
<path d="M3020 4141 c-22 -42 26 -79 68 -52 8 5 12 21 10 37 -2 24 -8 29 -35
32 -24 2 -34 -2 -43 -17z"/>
<path d="M3136 4063 c-6 -14 -5 -15 5 -6 7 7 10 15 7 18 -3 3 -9 -2 -12 -12z"/>
<path d="M3058 4053 c7 -3 16 -2 19 1 4 3 -2 6 -13 5 -11 0 -14 -3 -6 -6z"/>
<path d="M3065 4030 c-18 -8 -17 -9 7 -9 15 -1 30 4 33 9 7 12 -12 12 -40 0z"/>
<path d="M3310 3090 l0 -140 50 0 c55 0 104 20 114 45 3 9 6 54 6 99 0 69 -4
88 -21 110 -18 23 -27 26 -85 26 l-64 0 0 -140z"/>
<path d="M4744 2995 c-22 -118 -38 -217 -36 -220 3 -3 41 -5 84 -5 65 0 78 3
78 16 0 24 -69 385 -78 407 -4 11 -23 -65 -48 -198z"/>
<path d="M6320 2924 l0 -307 68 6 c56 5 71 11 90 33 23 26 23 28 20 281 -3
254 -3 255 -27 274 -17 14 -39 19 -87 19 l-64 0 0 -306z"/>
</g>
</svg>
